<svg width="14" height="21" viewBox="0 0 14 21" fill="none" xmlns="http://www.w3.org/2000/svg">
<path d="M7.98997 19.8605L7.98997 3.26119L11.9511 7.22203C12.2979 7.56903 12.8604 7.56903 13.2072 7.22203C13.5542 6.87504 13.5542 6.31248 13.2072 5.96599L7.72983 0.488762C7.38304 0.141767 6.82042 0.141767 6.47374 0.488762L0.996144 5.96599C0.822595 6.13944 0.73595 6.36675 0.73595 6.59401C0.73595 6.82127 0.822595 7.04859 0.996144 7.22203C1.34293 7.56903 1.9055 7.56903 2.25218 7.22203L6.21349 3.26119L6.21349 19.8605C6.21349 20.3511 6.61122 20.7488 7.10176 20.7488C7.59229 20.7488 7.98997 20.3511 7.98997 19.8605Z" fill="#615E83"/>
</svg>
