<svg width="28" height="15" viewBox="0 0 28 15" fill="none" xmlns="http://www.w3.org/2000/svg">
<path d="M1.74871 2.0941H26.6092C27.0667 2.0941 27.4379 1.72282 27.4379 1.26543C27.4379 0.807979 27.0666 0.436768 26.6092 0.436768H1.74871C1.29126 0.436768 0.920044 0.808048 0.920044 1.26543C0.920044 1.72282 1.29132 2.0941 1.74871 2.0941Z" fill="white"/>
<path d="M26.6092 6.23755H1.74871C1.29126 6.23755 0.920044 6.60883 0.920044 7.06621C0.920044 7.5236 1.29132 7.89488 1.74871 7.89488H26.6092C27.0667 7.89488 27.4379 7.5236 27.4379 7.06621C27.4379 6.60883 27.0667 6.23755 26.6092 6.23755Z" fill="white"/>
<path d="M26.6093 12.0383H10.0356C9.57812 12.0383 9.20691 12.4096 9.20691 12.867C9.20691 13.3244 9.57819 13.6957 10.0356 13.6957H26.6093C27.0667 13.6957 27.4379 13.3244 27.4379 12.867C27.438 12.4095 27.0667 12.0383 26.6093 12.0383Z" fill="white"/>
</svg>
