<?xml version="1.0" encoding="UTF-8"?>
<svg width="145px" height="51px" viewBox="0 0 145 51" version="1.1" xmlns="http://www.w3.org/2000/svg" xmlns:xlink="http://www.w3.org/1999/xlink">
    <!-- Generator: Sketch 51 (57462) - http://www.bohemiancoding.com/sketch -->
    <title>logo</title>
    <desc>Created with Sketch.</desc>
    <defs>
        <path d="M17.6,35.2 C7.8797884,35.2 0,27.3202116 0,17.6 C0,7.8797884 7.8797884,0 17.6,0 C27.3202116,0 35.2,7.8797884 35.2,17.6 C35.2,27.3202116 27.3202116,35.2 17.6,35.2 Z M18.77568,21.69552 L18.77568,16.64608 L21.81872,16.64608 C22.3983496,16.64608 22.8609316,16.4733084 23.20648,16.12776 C23.5520284,15.7822116 23.7248,15.2193106 23.7248,14.43904 C23.7248,13.9931711 23.6634939,13.5863218 23.54088,13.21848 C23.4182661,12.8506382 23.2900807,12.5441079 23.15632,12.29888 L18.77568,12.29888 L18.77568,10.15872 C18.77568,9.04404776 18.5025894,8.31394839 17.9564,7.9684 C17.4102106,7.62285161 16.6466716,7.45008 15.66576,7.45008 C15.1530108,7.45008 14.6681356,7.48909294 14.21112,7.56712 C13.7541044,7.64514706 13.4029879,7.71759967 13.15776,7.78448 L13.15776,22.0968 C13.15776,24.10321 13.6872214,25.5522622 14.74616,26.444 C15.8050986,27.3357378 17.3154569,27.7816 19.27728,27.7816 C20.882408,27.7816 22.0026368,27.5140827 22.638,26.97904 C23.2733632,26.4439973 23.59104,25.7529109 23.59104,24.90576 C23.59104,24.4821845 23.5185874,24.1199215 23.37368,23.81896 C23.2287726,23.5179985 23.056001,23.2449079 22.85536,22.99968 C22.5878387,23.0888538 22.2757351,23.1613064 21.91904,23.21704 C21.5623449,23.2727736 21.2168017,23.30064 20.8824,23.30064 C20.2135967,23.30064 19.6952818,23.1780279 19.32744,22.9328 C18.9595982,22.6875721 18.77568,22.2751496 18.77568,21.69552 Z" id="path-1"></path>
    </defs>
    <g id="logo" stroke="none" stroke-width="1" fill="none" fill-rule="evenodd">
        <g>
            <path d="M50.705984,34.670016 C49.5505222,34.670016 48.4783089,34.5084496 47.489312,34.185312 C46.5003151,33.8621744 45.6386277,33.3774752 44.904224,32.7312 C44.1698203,32.0849248 43.5920981,31.2721969 43.17104,30.292992 C42.7499819,29.3137871 42.539456,28.1681346 42.539456,26.856 C42.539456,25.5634495 42.7499819,24.4520687 43.17104,23.521824 C43.5920981,22.5915793 44.1453406,21.827811 44.830784,21.230496 C45.5162274,20.633181 46.2995796,20.1925454 47.180864,19.908576 C48.0621484,19.6246066 48.9630034,19.482624 49.883456,19.482624 C50.9214132,19.482624 51.8663317,19.6392944 52.71824,19.95264 C53.5701483,20.2659856 54.3045409,20.6968293 54.92144,21.245184 C55.5383391,21.7935387 56.0181423,22.4495962 56.360864,23.213376 C56.7035857,23.9771558 56.874944,24.8094675 56.874944,25.710336 C56.874944,26.3761953 56.6888979,26.8853742 56.3168,27.237888 C55.9447021,27.5904018 55.4257313,27.8156155 54.759872,27.913536 L47.504,29.000448 C47.7194251,29.6467232 48.1600607,30.1314224 48.82592,30.45456 C49.4917793,30.7776976 50.2555477,30.939264 51.117248,30.939264 C51.920196,30.939264 52.6790684,30.836449 53.393888,30.630816 C54.1087076,30.425183 54.6913257,30.1852814 55.14176,29.911104 C55.4551056,30.106945 55.7194869,30.3811182 55.934912,30.733632 C56.1503371,31.0861458 56.258048,31.458238 56.258048,31.84992 C56.258048,32.7312044 55.8467881,33.3872618 55.024256,33.818112 C54.3975649,34.1510417 53.6925479,34.3762554 52.909184,34.49376 C52.1258201,34.6112646 51.3914274,34.670016 50.705984,34.670016 Z M49.883456,23.125248 C49.4134376,23.125248 49.0070737,23.2035832 48.664352,23.360256 C48.3216303,23.5169288 48.0425611,23.7176628 47.827136,23.962464 C47.6117109,24.2072652 47.4501445,24.4814385 47.342432,24.784992 C47.2347195,25.0885455 47.1710721,25.3969904 47.151488,25.710336 L52.174784,24.887808 C52.1160317,24.496126 51.9006099,24.10445 51.528512,23.712768 C51.1564141,23.321086 50.6080676,23.125248 49.883456,23.125248 Z M66.245888,19.482624 C67.3621816,19.482624 68.3756434,19.6246066 69.286304,19.908576 C70.1969646,20.1925454 70.9656289,20.5597417 71.59232,21.010176 C71.984002,21.2843534 72.2924469,21.5879023 72.517664,21.920832 C72.7428811,22.2537617 72.855488,22.6846054 72.855488,23.213376 L72.855488,33.494976 C72.855488,34.5329332 72.65965,35.4288922 72.267968,36.18288 C71.876286,36.9368678 71.3426274,37.5635495 70.666976,38.062944 C69.9913246,38.5623385 69.1981806,38.9295348 68.28752,39.164544 C67.3768594,39.3995532 66.4025652,39.517056 65.364608,39.517056 C63.5824551,39.517056 62.1822131,39.2771544 61.16384,38.797344 C60.1454669,38.3175336 59.636288,37.5390774 59.636288,36.461952 C59.636288,36.0115177 59.7293111,35.6149457 59.91536,35.272224 C60.1014089,34.9295023 60.3119348,34.6700169 60.546944,34.49376 C61.1148828,34.8071056 61.7562524,35.0714869 62.471072,35.286912 C63.1858916,35.5023371 63.9251802,35.610048 64.68896,35.610048 C65.7465013,35.610048 66.5886049,35.4337938 67.215296,35.08128 C67.8419871,34.7287662 68.155328,34.1608359 68.155328,33.377472 L68.155328,32.907456 C67.35238,33.2599698 66.3731898,33.436224 65.217728,33.436224 C64.3364436,33.436224 63.499236,33.3040333 62.70608,33.039648 C61.912924,32.7752627 61.217699,32.3640028 60.620384,31.805856 C60.023069,31.2477092 59.5432658,30.5280044 59.18096,29.64672 C58.8186542,28.7654356 58.637504,27.7177021 58.637504,26.503488 C58.637504,25.308858 58.8284461,24.2709164 59.210336,23.389632 C59.5922259,22.5083476 60.1209886,21.7788509 60.79664,21.20112 C61.4722914,20.6233891 62.2752273,20.1925454 63.205472,19.908576 C64.1357167,19.6246066 65.1491785,19.482624 66.245888,19.482624 Z M68.0672,23.742144 C67.9301113,23.6638076 67.7293773,23.5854724 67.464992,23.507136 C67.2006067,23.4287996 66.872578,23.389632 66.480896,23.389632 C65.5212752,23.389632 64.8015704,23.6589093 64.32176,24.197472 C63.8419496,24.7360347 63.602048,25.504699 63.602048,26.503488 C63.602048,27.6393657 63.8419496,28.4569895 64.32176,28.956384 C64.8015704,29.4557785 65.4135643,29.705472 66.15776,29.705472 C66.960708,29.705472 67.5971816,29.5194259 68.0672,29.147328 L68.0672,23.742144 Z M80.933888,34.170624 C80.738047,34.2293763 80.4296021,34.2881277 80.008544,34.34688 C79.5874859,34.4056323 79.1517463,34.435008 78.701312,34.435008 C78.2704618,34.435008 77.8836817,34.4056323 77.54096,34.34688 C77.1982383,34.2881277 76.9093772,34.1706249 76.674368,33.994368 C76.4393588,33.8181111 76.2582086,33.5782095 76.130912,33.274656 C76.0036154,32.9711025 75.939968,32.5745304 75.939968,32.084928 L75.939968,23.272128 C75.939968,22.8216937 76.0231992,22.4349136 76.189664,22.111776 C76.3561288,21.7886384 76.5960304,21.4997773 76.909376,21.245184 C77.2227216,20.9905907 77.6095017,20.760481 78.069728,20.554848 C78.5299543,20.349215 79.0244454,20.1680648 79.553216,20.011392 C80.0819866,19.8547192 80.6303332,19.7323204 81.198272,19.644192 C81.7662108,19.5560636 82.3341412,19.512 82.90208,19.512 C83.8421167,19.512 84.5863013,19.6931502 85.134656,20.055456 C85.6830107,20.4177618 85.957184,21.0101719 85.957184,21.832704 C85.957184,22.1068814 85.9180164,22.3761587 85.83968,22.640544 C85.7613436,22.9049293 85.6634246,23.1448309 85.54592,23.360256 C85.1346539,23.360256 84.7136022,23.3798398 84.282752,23.419008 C83.8519018,23.4581762 83.4308501,23.5169276 83.019584,23.595264 C82.6083179,23.6736004 82.2215378,23.7568316 81.859232,23.84496 C81.4969262,23.9330884 81.1884813,24.0359034 80.933888,24.153408 L80.933888,34.170624 Z M102.789632,27.061632 C102.789632,28.2758461 102.603586,29.3578513 102.231488,30.30768 C101.85939,31.2575087 101.335523,32.0555488 100.659872,32.701824 C99.9842206,33.3480992 99.1763887,33.8376943 98.236352,34.170624 C97.2963153,34.5035537 96.2485818,34.670016 95.09312,34.670016 C93.9376582,34.670016 92.8899247,34.4937618 91.949888,34.141248 C91.0098513,33.7887342 90.2020194,33.2844513 89.526368,32.628384 C88.8507166,31.9723167 88.3268499,31.1742767 87.954752,30.23424 C87.5826541,29.2942033 87.396608,28.2366779 87.396608,27.061632 C87.396608,25.9061702 87.5826541,24.8584367 87.954752,23.9184 C88.3268499,22.9783633 88.8507166,22.1803233 89.526368,21.524256 C90.2020194,20.8681887 91.0098513,20.3639058 91.949888,20.011392 C92.8899247,19.6588782 93.9376582,19.482624 95.09312,19.482624 C96.2485818,19.482624 97.2963153,19.6637742 98.236352,20.02608 C99.1763887,20.3883858 99.9842206,20.8975647 100.659872,21.553632 C101.335523,22.2096993 101.85939,23.0077393 102.231488,23.947776 C102.603586,24.8878127 102.789632,25.9257543 102.789632,27.061632 Z M92.508032,27.061632 C92.508032,28.256262 92.7381417,29.1718048 93.198368,29.808288 C93.6585943,30.4447712 94.2999639,30.763008 95.122496,30.763008 C95.9450281,30.763008 96.5766058,30.4398752 97.017248,29.7936 C97.4578902,29.1473248 97.678208,28.2366779 97.678208,27.061632 C97.678208,25.8865861 97.4529943,24.9808352 97.00256,24.344352 C96.5521257,23.7078688 95.9156521,23.389632 95.09312,23.389632 C94.2705879,23.389632 93.6341143,23.7078688 93.18368,24.344352 C92.7332457,24.9808352 92.508032,25.8865861 92.508032,27.061632 Z M104.34656,31.820544 C104.34656,30.9980119 104.601149,30.3125787 105.110336,29.764224 C105.619523,29.2158693 106.314748,28.941696 107.196032,28.941696 C108.077316,28.941696 108.772541,29.2158693 109.281728,29.764224 C109.790915,30.3125787 110.045504,30.9980119 110.045504,31.820544 C110.045504,32.6430761 109.790915,33.3285093 109.281728,33.876864 C108.772541,34.4252187 108.077316,34.699392 107.196032,34.699392 C106.314748,34.699392 105.619523,34.4252187 105.110336,33.876864 C104.601149,33.3285093 104.34656,32.6430761 104.34656,31.820544 Z M112.27808,15.076224 C112.473921,15.0174717 112.787262,14.9538243 113.218112,14.88528 C113.648962,14.8167357 114.089598,14.782464 114.540032,14.782464 C114.970882,14.782464 115.357662,14.8118397 115.700384,14.870592 C116.043106,14.9293443 116.331967,15.0468471 116.566976,15.223104 C116.801985,15.3993609 116.978239,15.6392625 117.095744,15.942816 C117.213249,16.2463695 117.272,16.6429416 117.272,17.132544 L117.272,20.011392 C117.761602,19.815551 118.226718,19.6784644 118.66736,19.600128 C119.108002,19.5217916 119.592701,19.482624 120.121472,19.482624 C121.061509,19.482624 121.952572,19.6490863 122.794688,19.982016 C123.636804,20.3149457 124.380989,20.7996448 125.027264,21.436128 C125.673539,22.0726112 126.182718,22.8608593 126.554816,23.800896 C126.926914,24.7409327 127.11296,25.8278338 127.11296,27.061632 C127.11296,28.3345984 126.922018,29.4459793 126.540128,30.395808 C126.158238,31.3456367 125.624579,32.1338849 124.939136,32.760576 C124.253693,33.3872671 123.416485,33.8621744 122.427488,34.185312 C121.438491,34.5084496 120.346694,34.670016 119.152064,34.670016 C117.859514,34.670016 116.762821,34.5182415 115.861952,34.214688 C114.961083,33.9111345 114.197315,33.5341463 113.570624,33.083712 C112.708924,32.476605 112.27808,31.6932528 112.27808,30.733632 L112.27808,15.076224 Z M119.152064,30.733632 C120.052933,30.733632 120.753054,30.4251871 121.252448,29.808288 C121.751842,29.1913889 122.001536,28.2758461 122.001536,27.061632 C122.001536,25.8278338 121.746947,24.907395 121.23776,24.300288 C120.728573,23.693181 120.04314,23.389632 119.18144,23.389632 C118.789758,23.389632 118.451937,23.4287996 118.167968,23.507136 C117.883999,23.5854724 117.575554,23.7029752 117.242624,23.859648 L117.242624,30.263616 C117.458049,30.4007047 117.717534,30.5133116 118.021088,30.60144 C118.324642,30.6895684 118.70163,30.733632 119.152064,30.733632 Z M131.783744,30.557376 C131.568319,30.0677736 131.338209,29.519427 131.093408,28.91232 C130.848607,28.305213 130.594017,27.6099879 130.329632,26.826624 C130.065247,26.0432601 129.791073,25.147301 129.507104,24.13872 C129.223135,23.130139 128.924482,21.9697986 128.611136,20.657664 C128.885313,20.3834866 129.25251,20.143585 129.712736,19.937952 C130.172962,19.732319 130.677245,19.629504 131.2256,19.629504 C131.911043,19.629504 132.478974,19.7714866 132.929408,20.055456 C133.379842,20.3394254 133.712767,20.8730841 133.928192,21.656448 L136.248896,29.734848 L136.3664,29.734848 C136.601409,29.0689887 136.831519,28.3443879 137.056736,27.561024 C137.281953,26.7776601 137.502271,25.9698282 137.717696,25.137504 C137.933121,24.3051798 138.133855,23.4728682 138.319904,22.640544 C138.505953,21.8082198 138.667519,20.990596 138.804608,20.187648 C139.509636,19.8155501 140.283196,19.629504 141.125312,19.629504 C141.810755,19.629504 142.378686,19.7763825 142.82912,20.070144 C143.279554,20.3639055 143.504768,20.8730844 143.504768,21.597696 C143.504768,22.1264666 143.436225,22.7384605 143.299136,23.433696 C143.162047,24.1289315 142.980897,24.8682201 142.75568,25.651584 C142.530463,26.4349479 142.266082,27.2427798 141.962528,28.075104 C141.658974,28.9074282 141.340738,29.725052 141.007808,30.528 C140.674878,31.330948 140.332162,32.0898204 139.979648,32.80464 C139.627134,33.5194596 139.284418,34.1608292 138.951488,34.728768 C138.403133,35.6883888 137.893954,36.471741 137.423936,37.078848 C136.953918,37.685955 136.50349,38.1608623 136.07264,38.503584 C135.64179,38.8463057 135.210946,39.0813114 134.780096,39.208608 C134.349246,39.3359046 133.898818,39.399552 133.4288,39.399552 C132.606268,39.399552 131.940419,39.1547544 131.431232,38.665152 C130.922045,38.1755496 130.618496,37.5390759 130.520576,36.755712 C131.147267,36.2661096 131.773949,35.722659 132.40064,35.125344 C133.027331,34.528029 133.595261,33.9160351 134.104448,33.289344 C133.771518,33.1914235 133.414114,32.9613138 133.032224,32.599008 C132.650334,32.2367022 132.234178,31.556165 131.783744,30.557376 Z" id="egro.by" fill="#FFFFFF"></path>
            <g id="logo_wh">
                <g id="logo" transform="translate(4.400000, 4.400000)">
                    <mask id="mask-2" fill="white">
                        <use xlink:href="#path-1"></use>
                    </mask>
                    <use id="t" fill="#FFFFFF" xlink:href="#path-1"></use>
                </g>
            </g>
        </g>
    </g>
</svg>