<?xml version="1.0" encoding="UTF-8"?>
<svg width="201px" height="68px" viewBox="0 0 201 68" version="1.1" xmlns="http://www.w3.org/2000/svg" xmlns:xlink="http://www.w3.org/1999/xlink">
    <!-- Generator: Sketch 51 (57462) - http://www.bohemiancoding.com/sketch -->
    <title>logo_tegro</title>
    <desc>Created with Sketch.</desc>
    <defs></defs>
    <g id="logo_tegro" stroke="none" stroke-width="1" fill="none" fill-rule="evenodd">
        <path d="M70.6472,46.6528 C69.042392,46.6528 67.5532069,46.4284022 66.1796,45.9796 C64.8059931,45.5307978 63.6092051,44.8576045 62.5892,43.96 C61.5691949,43.0623955 60.7668029,41.9336068 60.182,40.5736 C59.5971971,39.2135932 59.3048,37.6224091 59.3048,35.8 C59.3048,34.004791 59.5971971,32.4612065 60.182,31.1692 C60.7668029,29.8771935 61.5351952,28.8164041 62.4872,27.9868 C63.4392048,27.1571959 64.5271939,26.545202 65.7512,26.1508 C66.9752061,25.756398 68.2263936,25.5592 69.5048,25.5592 C70.9464072,25.5592 72.2587941,25.7767978 73.442,26.212 C74.6252059,26.6472022 75.6451957,27.2455962 76.502,28.0072 C77.3588043,28.7688038 78.0251976,29.6799947 78.5012,30.7408 C78.9772024,31.8016053 79.2152,32.9575937 79.2152,34.2088 C79.2152,35.1336046 78.9568026,35.8407976 78.44,36.3304 C77.9231974,36.8200024 77.2024046,37.1327993 76.2776,37.2688 L66.2,38.7784 C66.4992015,39.6760045 67.1111954,40.3491978 68.036,40.798 C68.9608046,41.2468022 70.021594,41.4712 71.2184,41.4712 C72.3336056,41.4712 73.387595,41.3284014 74.3804,41.0428 C75.373205,40.7571986 76.1823969,40.4240019 76.808,40.0432 C77.2432022,40.3152014 77.6103985,40.6959976 77.9096,41.1856 C78.2088015,41.6752024 78.3584,42.1919973 78.3584,42.736 C78.3584,43.9600061 77.7872057,44.871197 76.6448,45.4696 C75.7743956,45.9320023 74.7952054,46.2447992 73.7072,46.408 C72.6191946,46.5712008 71.5992048,46.6528 70.6472,46.6528 Z M69.5048,30.6184 C68.8519967,30.6184 68.2876024,30.7271989 67.8116,30.9448 C67.3355976,31.1624011 66.9480015,31.4411983 66.6488,31.7812 C66.3495985,32.1212017 66.1252007,32.5019979 65.9756,32.9236 C65.8259993,33.3452021 65.7376001,33.7735978 65.7104,34.2088 L72.6872,33.0664 C72.6055996,32.5223973 72.3064026,31.9784027 71.7896,31.4344 C71.2727974,30.8903973 70.511205,30.6184 69.5048,30.6184 Z M92.2304,25.5592 C93.7808078,25.5592 95.1883937,25.756398 96.4532,26.1508 C97.7180063,26.545202 98.7855956,27.0551969 99.656,27.6808 C100.200003,28.0616019 100.628398,28.4831977 100.9412,28.9456 C101.254002,29.4080023 101.4104,30.0063963 101.4104,30.7408 L101.4104,45.0208 C101.4104,46.4624072 101.138403,47.7067948 100.5944,48.754 C100.050397,49.8012052 99.3092047,50.6715965 98.3708,51.3652 C97.4323953,52.0588035 96.3308063,52.5687984 95.066,52.8952 C93.8011937,53.2216016 92.4480072,53.3848 91.0064,53.3848 C88.5311876,53.3848 86.5864071,53.0516033 85.172,52.3852 C83.7575929,51.7187967 83.0504,50.6376075 83.0504,49.1416 C83.0504,48.5159969 83.1795987,47.9652024 83.438,47.4892 C83.6964013,47.0131976 83.9887984,46.6528012 84.3152,46.408 C85.1040039,46.8432022 85.994795,47.2103985 86.9876,47.5096 C87.980405,47.8088015 89.0071947,47.9584 90.068,47.9584 C91.5368073,47.9584 92.7063956,47.7136024 93.5768,47.224 C94.4472044,46.7343976 94.8824,45.9456054 94.8824,44.8576 L94.8824,44.2048 C93.7671944,44.6944024 92.407208,44.9392 90.8024,44.9392 C89.5783939,44.9392 88.4156055,44.7556018 87.314,44.3884 C86.2123945,44.0211982 85.2468041,43.4500039 84.4172,42.6748 C83.5875959,41.8995961 82.9212025,40.9000061 82.418,39.676 C81.9147975,38.4519939 81.6632,36.9968084 81.6632,35.3104 C81.6632,33.6511917 81.9283973,32.2096061 82.4588,30.9856 C82.9892027,29.7615939 83.7235953,28.748404 84.662,27.946 C85.6004047,27.143596 86.7155935,26.545202 88.0076,26.1508 C89.2996065,25.756398 90.7071924,25.5592 92.2304,25.5592 Z M94.76,31.4752 C94.569599,31.3663995 94.2908018,31.2576005 93.9236,31.1488 C93.5563982,31.0399995 93.1008027,30.9856 92.5568,30.9856 C91.2239933,30.9856 90.2244033,31.3595963 89.558,32.1076 C88.8915967,32.8556037 88.5584,33.9231931 88.5584,35.3104 C88.5584,36.8880079 88.8915967,38.0235965 89.558,38.7172 C90.2244033,39.4108035 91.0743948,39.7576 92.108,39.7576 C93.2232056,39.7576 94.1071967,39.4992026 94.76,38.9824 L94.76,31.4752 Z M112.6304,45.9592 C112.358399,46.0408004 111.930003,46.1223996 111.3452,46.204 C110.760397,46.2856004 110.155203,46.3264 109.5296,46.3264 C108.931197,46.3264 108.394002,46.2856004 107.918,46.204 C107.441998,46.1223996 107.040802,45.9592012 106.7144,45.7144 C106.387998,45.4695988 106.136401,45.1364021 105.9596,44.7148 C105.782799,44.2931979 105.6944,43.7424034 105.6944,43.0624 L105.6944,30.8224 C105.6944,30.1967969 105.809999,29.6596022 106.0412,29.2108 C106.272401,28.7619978 106.605598,28.3608018 107.0408,28.0072 C107.476002,27.6535982 108.013197,27.3340014 108.6524,27.0484 C109.291603,26.7627986 109.978396,26.5112011 110.7128,26.2936 C111.447204,26.0759989 112.208796,25.9060006 112.9976,25.7836 C113.786404,25.6611994 114.575196,25.6 115.364,25.6 C116.669607,25.6 117.703196,25.8515975 118.4648,26.3548 C119.226404,26.8580025 119.6072,27.6807943 119.6072,28.8232 C119.6072,29.2040019 119.552801,29.5779982 119.444,29.9452 C119.335199,30.3124018 119.199201,30.6455985 119.036,30.9448 C118.464797,30.9448 117.880003,30.9719997 117.2816,31.0264 C116.683197,31.0808003 116.098403,31.1623995 115.5272,31.2712 C114.955997,31.3800005 114.418803,31.4955994 113.9156,31.618 C113.412397,31.7404006 112.984002,31.8831992 112.6304,32.0464 L112.6304,45.9592 Z M142.9856,36.0856 C142.9856,37.7720084 142.727203,39.2747934 142.2104,40.594 C141.693597,41.9132066 140.966005,43.0215955 140.0276,43.9192 C139.089195,44.8168045 137.967207,45.4967977 136.6616,45.9592 C135.355993,46.4216023 133.900808,46.6528 132.296,46.6528 C130.691192,46.6528 129.236007,46.4080024 127.9304,45.9184 C126.624793,45.4287976 125.502805,44.7284046 124.5644,43.8172 C123.625995,42.9059954 122.898403,41.7976065 122.3816,40.492 C121.864797,39.1863935 121.6064,37.7176082 121.6064,36.0856 C121.6064,34.480792 121.864797,33.0256065 122.3816,31.72 C122.898403,30.4143935 123.625995,29.3060046 124.5644,28.3948 C125.502805,27.4835954 126.624793,26.7832024 127.9304,26.2936 C129.236007,25.8039976 130.691192,25.5592 132.296,25.5592 C133.900808,25.5592 135.355993,25.8107975 136.6616,26.314 C137.967207,26.8172025 139.089195,27.5243954 140.0276,28.4356 C140.966005,29.3468046 141.693597,30.4551935 142.2104,31.7608 C142.727203,33.0664065 142.9856,34.5079921 142.9856,36.0856 Z M128.7056,36.0856 C128.7056,37.7448083 129.025197,39.0163956 129.6644,39.9004 C130.303603,40.7844044 131.194394,41.2264 132.3368,41.2264 C133.479206,41.2264 134.356397,40.7776045 134.9684,39.88 C135.580403,38.9823955 135.8864,37.7176082 135.8864,36.0856 C135.8864,34.4535918 135.573603,33.1956044 134.948,32.3116 C134.322397,31.4275956 133.438406,30.9856 132.296,30.9856 C131.153594,30.9856 130.269603,31.4275956 129.644,32.3116 C129.018397,33.1956044 128.7056,34.4535918 128.7056,36.0856 Z M145.148,42.6952 C145.148,41.5527943 145.501596,40.6008038 146.2088,39.8392 C146.916004,39.0775962 147.881594,38.6968 149.1056,38.6968 C150.329606,38.6968 151.295196,39.0775962 152.0024,39.8392 C152.709604,40.6008038 153.0632,41.5527943 153.0632,42.6952 C153.0632,43.8376057 152.709604,44.7895962 152.0024,45.5512 C151.295196,46.3128038 150.329606,46.6936 149.1056,46.6936 C147.881594,46.6936 146.916004,46.3128038 146.2088,45.5512 C145.501596,44.7895962 145.148,43.8376057 145.148,42.6952 Z M156.164,19.4392 C156.436001,19.3575996 156.871197,19.2692005 157.4696,19.174 C158.068003,19.0787995 158.679997,19.0312 159.3056,19.0312 C159.904003,19.0312 160.441198,19.0719996 160.9172,19.1536 C161.393202,19.2352004 161.794398,19.3983988 162.1208,19.6432 C162.447202,19.8880012 162.691999,20.2211979 162.8552,20.6428 C163.018401,21.0644021 163.1,21.6151966 163.1,22.2952 L163.1,26.2936 C163.780003,26.0215986 164.425997,25.8312005 165.038,25.7224 C165.650003,25.6135995 166.323196,25.5592 167.0576,25.5592 C168.363207,25.5592 169.600794,25.7903977 170.7704,26.2528 C171.940006,26.7152023 172.973596,27.3883956 173.8712,28.2724 C174.768804,29.1564044 175.475997,30.2511935 175.9928,31.5568 C176.509603,32.8624065 176.768,34.3719914 176.768,36.0856 C176.768,37.8536088 176.502803,39.3971934 175.9724,40.7164 C175.441997,42.0356066 174.700805,43.1303956 173.7488,44.0008 C172.796795,44.8712044 171.634007,45.5307978 170.2604,45.9796 C168.886793,46.4284022 167.370408,46.6528 165.7112,46.6528 C163.915991,46.6528 162.392806,46.4420021 161.1416,46.0204 C159.890394,45.5987979 158.829604,45.0752031 157.9592,44.4496 C156.762394,43.6063958 156.164,42.5184067 156.164,41.1856 L156.164,19.4392 Z M165.7112,41.1856 C166.962406,41.1856 167.934797,40.7572043 168.6284,39.9004 C169.322003,39.0435957 169.6688,37.7720084 169.6688,36.0856 C169.6688,34.3719914 169.315204,33.0936042 168.608,32.2504 C167.900796,31.4071958 166.948806,30.9856 165.752,30.9856 C165.207997,30.9856 164.738802,31.0399995 164.3444,31.1488 C163.949998,31.2576005 163.521602,31.4207989 163.0592,31.6384 L163.0592,40.5328 C163.358401,40.723201 163.718798,40.8795994 164.1404,41.002 C164.562002,41.1244006 165.085597,41.1856 165.7112,41.1856 Z M183.2552,40.9408 C182.955999,40.2607966 182.636402,39.4992042 182.2964,38.656 C181.956398,37.8127958 181.602802,36.8472054 181.2356,35.7592 C180.868398,34.6711946 180.487602,33.426807 180.0932,32.026 C179.698798,30.625193 179.284002,29.0136091 178.8488,27.1912 C179.229602,26.8103981 179.739597,26.4772014 180.3788,26.1916 C181.018003,25.9059986 181.718396,25.7632 182.48,25.7632 C183.432005,25.7632 184.220797,25.960398 184.8464,26.3548 C185.472003,26.749202 185.934399,27.4903946 186.2336,28.5784 L189.4568,39.7984 L189.62,39.7984 C189.946402,38.8735954 190.265998,37.8672054 190.5788,36.7792 C190.891602,35.6911946 191.197599,34.5692058 191.4968,33.4132 C191.796001,32.2571942 192.074799,31.1012058 192.3332,29.9452 C192.591601,28.7891942 192.815999,27.6536056 193.0064,26.5384 C193.985605,26.0215974 195.059994,25.7632 196.2296,25.7632 C197.181605,25.7632 197.970397,25.967198 198.596,26.3752 C199.221603,26.783202 199.5344,27.490395 199.5344,28.4968 C199.5344,29.2312037 199.439201,30.0811952 199.2488,31.0468 C199.058399,32.0124048 198.806802,33.0391946 198.494,34.1272 C198.181198,35.2152054 197.814002,36.3371942 197.3924,37.4932 C196.970798,38.6492058 196.528802,39.7847944 196.0664,40.9 C195.603998,42.0152056 195.128002,43.069195 194.6384,44.062 C194.148798,45.054805 193.672802,45.9455961 193.2104,46.7344 C192.448796,48.0672067 191.741603,49.1551958 191.0888,49.9984 C190.435997,50.8416042 189.810403,51.5011976 189.212,51.9772 C188.613597,52.4532024 188.015203,52.7795991 187.4168,52.9564 C186.818397,53.1332009 186.192803,53.2216 185.54,53.2216 C184.397594,53.2216 183.472804,52.8816034 182.7656,52.2016 C182.058396,51.5215966 181.636801,50.6376054 181.5008,49.5496 C182.371204,48.8695966 183.241596,48.1148041 184.112,47.2852 C184.982404,46.4555959 185.771196,45.6056044 186.4784,44.7352 C186.015998,44.5991993 185.519603,44.2796025 184.9892,43.7764 C184.458797,43.2731975 183.880803,42.3280069 183.2552,40.9408 Z" id="egro.by" fill="#FB7C3F"></path>
        <g id="logo">
            <g stroke-width="1" transform="translate(6.000000, 6.000000)" fill="#FB7C3F" id="Oval">
                <circle fill-rule="nonzero" cx="24" cy="24" r="24"></circle>
            </g>
            <path d="M31.6032,35.5848 C31.6032,36.375204 31.8539975,36.9375983 32.3556,37.272 C32.8572025,37.6064017 33.5639954,37.7736 34.476,37.7736 C34.9320023,37.7736 35.4031976,37.7356004 35.8896,37.6596 C36.3760024,37.5835996 36.8015982,37.4848006 37.1664,37.3632 C37.4400014,37.6976017 37.675599,38.0699979 37.8732,38.4804 C38.070801,38.8908021 38.1696,39.3847971 38.1696,39.9624 C38.1696,41.1176058 37.7364043,42.0599964 36.87,42.7896 C36.0035957,43.5192036 34.4760109,43.884 32.2872,43.884 C29.6119866,43.884 27.5524072,43.2760061 26.1084,42.06 C24.6643928,40.8439939 23.9424,38.8680137 23.9424,36.132 L23.9424,16.6152 C24.2768017,16.5239995 24.7555969,16.4252005 25.3788,16.3188 C26.0020031,16.2123995 26.6631965,16.1592 27.3624,16.1592 C28.7000067,16.1592 29.7411963,16.3947976 30.486,16.866 C31.2308037,17.3372024 31.6032,18.3327924 31.6032,19.8528 L31.6032,22.7712 L37.5768,22.7712 C37.7592009,23.1056017 37.9339992,23.5235975 38.1012,24.0252 C38.2684008,24.5268025 38.352,25.081597 38.352,25.6896 C38.352,26.7536053 38.1164024,27.5211976 37.6452,27.9924 C37.1739976,28.4636024 36.543204,28.6992 35.7528,28.6992 L31.6032,28.6992 L31.6032,35.5848 Z" id="t" fill="#FFFFFF"></path>
        </g>
    </g>
</svg>