<svg width="41" height="27" viewBox="0 0 41 27" fill="none" xmlns="http://www.w3.org/2000/svg">
<path opacity="0.391964" d="M25.9723 13.5883C25.9723 20.4877 20.3832 26.0781 13.4862 26.0781C6.58918 26.0781 1 20.4865 1 13.5883C1 6.69003 6.59055 1.09839 13.4862 1.09839C20.3818 1.09839 25.9723 6.69003 25.9723 13.5883Z" stroke="white"/>
<path opacity="0.945089" d="M28.4817 1.09839C25.6814 1.09839 23.1034 2.0314 21.0201 3.58894L21.0301 3.59017C21.4399 3.98606 21.8919 4.26469 22.2404 4.72044L19.6425 4.76168C19.2353 5.17264 18.8644 5.61976 18.5147 6.08442H23.0959C23.4444 6.50277 23.7666 6.86633 24.0589 7.32839H17.6841C17.4506 7.73058 17.2345 8.144 17.0459 8.57359H24.7847C24.987 9.00195 25.1681 9.32551 25.3218 9.77894H16.5875C16.4489 10.2099 16.3303 10.6507 16.2403 11.1003H25.6877C25.7801 11.5325 25.8512 11.9321 25.9 12.3393H16.0529C16.0117 12.7503 15.9904 13.1674 15.9904 13.5884H25.9711C25.9711 14.0306 25.9399 14.4402 25.8949 14.8374H16.0529C16.0953 15.2609 16.1578 15.6767 16.2403 16.0865H25.6726C25.5752 16.4911 25.4627 16.8983 25.3217 17.3204H16.5588C16.6911 17.7476 16.8523 18.1622 17.0284 18.5669H24.7847C24.5699 19.0215 24.3263 19.385 24.0578 19.8109H17.6618C17.9141 20.248 18.1926 20.6651 18.4948 21.0648L23.096 21.1335C22.7038 21.6043 22.2006 21.8878 21.7421 22.3C21.767 22.32 21.0089 22.2976 19.5163 22.2739C21.787 24.617 24.9607 26.0783 28.4815 26.0783C35.3797 26.0783 40.9714 20.4865 40.9714 13.5884C40.9714 6.69031 35.381 1.09839 28.4817 1.09839Z" fill="white"/>
</svg>
