<svg width="231" height="234" viewBox="0 0 231 234" fill="none" xmlns="http://www.w3.org/2000/svg">
<path d="M165.014 213.79C139.829 165.089 115.571 141.741 67.7153 134.995L104.507 71.2131C105.842 68.9713 108.276 67.6164 110.881 67.6664C155.406 68.6014 200.571 107.101 216.705 152.371L165.014 213.79Z" fill="url(#paint0_linear)"/>
<path d="M5.57022 80.9964L118.749 126.234L118.386 125.615L109.416 109.168L110.719 106.138" fill="url(#paint1_linear)"/>
<path opacity="0.75" d="M2.68872 80.2017C2.68872 80.2017 34.3769 131.849 71.1335 134.469L71.4569 134.491C71.9272 136.611 110.873 109.634 110.713 108.183C112.449 94.5462 112.181 80.7361 109.918 67.1913C75.7194 83.0651 2.68872 80.2017 2.68872 80.2017Z" fill="url(#paint2_linear)"/>
<path d="M109.416 109.168L2.60322 80.2174L110.735 106.19C111.051 106.746 111.085 107.421 110.825 108.008C110.565 108.595 110.042 109.026 109.416 109.168V109.168Z" fill="url(#paint3_linear)"/>
<path d="M109.416 109.168L110.719 106.138L118.749 126.234L109.262 109.217" fill="url(#paint4_linear)"/>
<path d="M42.4361 98.2886L56.322 88.6572L37.1393 83.109L25.1793 90.9474L42.4361 98.2886Z" fill="url(#paint5_linear)"/>
<path d="M42.4361 98.2886L44.1171 104.79L57.9254 94.7652L56.322 88.6571L42.4361 98.2886V98.2886Z" fill="url(#paint6_linear)"/>
<path d="M25.1793 90.9474L42.436 98.2886L44.117 104.79L26.8407 96.6986L25.1793 90.9474V90.9474Z" fill="url(#paint7_linear)"/>
<path d="M66.4042 80.9938L87.2841 81.5931L67.7154 94.305L51.1089 89.4787L66.4042 80.9938Z" fill="url(#paint8_linear)"/>
<path d="M87.2841 81.5931L89.7824 90.7822L70.2226 103.92L67.7155 94.3049L87.2841 81.5931V81.5931Z" fill="url(#paint9_linear)"/>
<path d="M51.1089 89.4787L53.4575 98.478L70.2225 103.92L67.7154 94.305L51.1089 89.4787V89.4787Z" fill="url(#paint10_linear)"/>
<path d="M82.8567 86.7378L82.5871 85.6942L86.8483 82.9835L87.1346 84.0444L82.8567 86.7378V86.7378Z" fill="white"/>
<path d="M44.5756 99.5659L44.306 98.5223L48.5672 95.8116L48.8361 96.8893L44.5756 99.5659V99.5659Z" fill="white"/>
<defs>
<linearGradient id="paint0_linear" x1="150.268" y1="52.73" x2="-38.4181" y2="48.3305" gradientUnits="userSpaceOnUse">
<stop stop-color="#ECF7FD" stop-opacity="0.01"/>
<stop offset="1" stop-color="#A9DFF7"/>
</linearGradient>
<linearGradient id="paint1_linear" x1="-148.721" y1="145.53" x2="141.785" y2="91.0921" gradientUnits="userSpaceOnUse">
<stop stop-color="white"/>
<stop offset="1" stop-color="#041961"/>
</linearGradient>
<linearGradient id="paint2_linear" x1="-411.359" y1="-496.464" x2="-867.478" y2="648.853" gradientUnits="userSpaceOnUse">
<stop stop-color="white"/>
<stop offset="0.971572" stop-color="#5CB0FC"/>
</linearGradient>
<linearGradient id="paint3_linear" x1="-161.306" y1="134.298" x2="133.652" y2="131.165" gradientUnits="userSpaceOnUse">
<stop stop-color="white"/>
<stop offset="1" stop-color="#213373"/>
</linearGradient>
<linearGradient id="paint4_linear" x1="105.14" y1="129.389" x2="134.002" y2="117.665" gradientUnits="userSpaceOnUse">
<stop stop-color="white"/>
<stop offset="1" stop-color="#A2BBDD"/>
</linearGradient>
<linearGradient id="paint5_linear" x1="7.58928" y1="58.9692" x2="22.2805" y2="115.048" gradientUnits="userSpaceOnUse">
<stop stop-color="white"/>
<stop offset="1" stop-color="#F0510F"/>
</linearGradient>
<linearGradient id="paint6_linear" x1="35.3581" y1="137.752" x2="85.9316" y2="121.734" gradientUnits="userSpaceOnUse">
<stop stop-color="#F78261"/>
<stop offset="1" stop-color="#E2501D"/>
</linearGradient>
<linearGradient id="paint7_linear" x1="60.3576" y1="106.641" x2="27.6536" y2="37.8731" gradientUnits="userSpaceOnUse">
<stop stop-color="#F7D690"/>
<stop offset="1" stop-color="#F0510F"/>
</linearGradient>
<linearGradient id="paint8_linear" x1="36.3184" y1="56.0933" x2="58.1115" y2="111.731" gradientUnits="userSpaceOnUse">
<stop stop-color="white"/>
<stop offset="1" stop-color="#F0510F"/>
</linearGradient>
<linearGradient id="paint9_linear" x1="123.077" y1="93.2289" x2="92.3741" y2="53.8846" gradientUnits="userSpaceOnUse">
<stop offset="0.1" stop-color="#F9455A"/>
<stop offset="1" stop-color="#FCD059"/>
</linearGradient>
<linearGradient id="paint10_linear" x1="2878.78" y1="3343.44" x2="2912.41" y2="3310.22" gradientUnits="userSpaceOnUse">
<stop stop-color="#F9455A"/>
<stop offset="1" stop-color="#FCAC59"/>
</linearGradient>
</defs>
</svg>
