<svg width="60" height="17" viewBox="0 0 60 17" fill="none" xmlns="http://www.w3.org/2000/svg">
<path fill-rule="evenodd" clip-rule="evenodd" d="M43.8625 3.43235C44.7013 3.23502 45.6689 3.00738 46.8087 3.00738C49.0217 2.90766 51.4358 3.80516 50.9328 6.49766L49.5246 12.9796H46.3058L46.507 11.8827C44.797 13.6777 40.3711 13.5779 41.0752 9.58905C41.5782 7.19572 43.9923 6.49766 47.6134 6.49766C47.8146 5.40072 47.1105 5.20127 45.9034 5.20127C44.6964 5.301 43.2882 5.69988 42.7852 5.89933L43.087 3.60572C43.333 3.55694 43.591 3.49624 43.8625 3.43235ZM45.2999 10.8854C46.1046 10.7857 46.8087 10.4866 47.0099 9.68878C47.0099 9.45519 47.0712 9.16082 47.146 9.09044H47.2111C47.189 9.06858 47.167 9.07068 47.146 9.09044H46.4064C45.7023 9.09044 44.797 9.09044 44.3946 9.68878C43.9923 10.4866 44.5958 10.8854 45.2999 10.8854Z" fill="white"/>
<path fill-rule="evenodd" clip-rule="evenodd" d="M45.8918 5.11684C44.6876 5.21764 43.2827 5.62085 42.781 5.82245L46.7949 3C49.0026 3 51.5113 3.70561 50.9092 6.42727L49.5043 12.9794H46.2932L46.4939 11.8706C44.788 13.685 40.3726 13.5842 41.0751 9.55213C41.5768 7.13288 43.9852 6.42727 47.5977 6.42727C47.7984 5.31844 47.096 5.11684 45.8918 5.11684ZM45.2897 10.8626C46.0925 10.7617 46.7949 10.4593 46.9956 9.65293C46.9956 9.41682 47.0568 9.11925 47.1314 9.04812H47.1963C47.1743 9.02602 47.1523 9.02814 47.1314 9.04812H46.3935C45.6911 9.04812 44.788 9.04812 44.3866 9.65293C43.9852 10.4593 44.5873 10.8626 45.2897 10.8626Z" fill="white"/>
<path d="M53.6441 0L51 13H54.2542L57 0H53.6441Z" fill="white"/>
<path d="M55.9831 0L51 13H54.2542L57 0H53.6441H55.9831Z" fill="white"/>
<path fill-rule="evenodd" clip-rule="evenodd" d="M33.6274 0H39.5894C41.3073 0 43.4294 2.2 42.9242 5.1C42.4189 7.6 40.3979 9 37.9726 9H35.4463L34.5368 13H31L33.6274 0ZM37.4674 6C38.3768 6 39.2863 5.4 39.4884 4.5C39.6905 3.6 39.1852 3 38.2758 3H36.5579L35.8505 6H37.4674Z" fill="white"/>
<path fill-rule="evenodd" clip-rule="evenodd" d="M34.6368 0H38.6688C40.3824 0 42.4992 2.2 41.8944 5.1C41.3904 7.6 39.3744 9 36.9552 9H34.4352L33.528 13H30L34.6368 0ZM36.552 6C37.4592 6 38.3664 5.4 38.568 4.5C38.7696 3.6 38.2656 3 37.3584 3H35.6448L34.9392 6H36.552Z" fill="white"/>
<path fill-rule="evenodd" clip-rule="evenodd" d="M13.618 3.4609C14.4429 3.2577 15.459 3.00738 16.6665 3.00738C18.9021 2.90766 21.4425 3.80516 20.9344 6.49766L19.5118 12.9796H16.26L16.4633 11.8827C14.7358 13.6777 10.3663 13.5779 11.0776 9.58905C11.5857 7.19572 14.0245 6.49766 17.581 6.49766C17.7843 5.40072 17.073 5.20127 15.8536 5.20127C14.6342 5.301 13.1099 5.69988 12.7034 5.89933L13.0083 3.60572C13.1984 3.56427 13.4016 3.5142 13.618 3.4609ZM15.2439 10.8854C16.0568 10.7857 16.7681 10.4866 16.9713 9.68878C16.9713 9.45519 17.0333 9.16082 17.1088 9.09044H17.1746C17.1523 9.06858 17.13 9.07068 17.1088 9.09044H16.3616C15.7519 9.09044 14.8374 9.09044 14.4309 9.68878C13.9228 10.4866 14.5325 10.8854 15.2439 10.8854Z" fill="white"/>
<path fill-rule="evenodd" clip-rule="evenodd" d="M15.8904 5.11684C14.6617 5.21764 13.1259 5.62085 12.7164 5.82245L16.7095 3C18.962 3 21.5217 3.70561 20.9074 6.42727L19.474 12.9794H16.1976L16.5047 11.8706C14.7641 13.685 10.3614 13.5842 11.0782 9.55213C11.5901 7.13288 14.0474 6.42727 17.631 6.42727C17.8358 5.31844 17.119 5.11684 15.8904 5.11684ZM15.1737 10.8626C15.9928 10.7617 16.7095 10.4593 16.9143 9.65293C16.9143 9.41682 16.9767 9.11925 17.0528 9.04812H17.119C17.0966 9.02602 17.0741 9.02814 17.0528 9.04812H16.2999C15.6856 9.04812 14.7641 9.04812 14.3546 9.65293C13.8426 10.4593 14.457 10.8626 15.1737 10.8626Z" fill="white"/>
<path d="M21.9821 3H25.125L25.6161 8.6L28.7589 3H32L24.5357 17H21L23.2589 12.8L21.9821 3Z" fill="white"/>
<path d="M25.125 3.2L25.6161 8.7L28.7589 3H32L24.5357 17H21L23.2589 12.9" fill="white"/>
<path fill-rule="evenodd" clip-rule="evenodd" d="M2.62081 0H8.66883C10.3824 0 12.4992 2.2 11.8944 5.1C11.3904 7.6 9.37443 9 6.95522 9H4.43522L3.52801 13H0L2.62081 0ZM6.55202 6C7.45923 6 8.36643 5.4 8.56803 4.5C8.76963 3.6 8.26563 3 7.35843 3H5.64482L4.93922 6H6.55202Z" fill="white"/>
<path fill-rule="evenodd" clip-rule="evenodd" d="M5.94722 0H8.66883C10.3824 0 12.4992 2.2 11.8944 5.1C11.3904 7.6 9.37443 9 6.95522 9H4.43522L3.52801 13H0L5.94722 0ZM6.55202 6C7.45923 6 8.36643 5.4 8.56803 4.5C8.76963 3.6 8.26563 3 7.35843 3H5.64482L4.93922 6H6.55202Z" fill="white"/>
</svg>
