<svg width="46" height="16" viewBox="0 0 46 16" fill="none" xmlns="http://www.w3.org/2000/svg">
<path fill-rule="evenodd" clip-rule="evenodd" d="M5.97021 10.7451L9.89675 0V0.00173563H14.1372L7.83596 15.7996H3.59555L0 2.20442C2.54024 3.52419 4.81644 6.18108 5.54247 8.62606L5.97021 10.7451ZM15.7529 0L13.2455 15.8154H17.2533L19.7591 0H15.7529ZM27.8416 6.4423C26.4411 5.74128 25.5825 5.26814 25.5825 4.55116C25.5997 3.89926 26.3086 3.23139 27.8916 3.23139C29.1937 3.19824 30.1507 3.50839 30.8767 3.81699L31.2404 3.98153L31.7853 0.672555C30.9937 0.362399 29.7385 0.0206539 28.1882 0.0206539C24.2305 0.0206539 21.4437 2.10636 21.4264 5.08938C21.3937 7.29067 23.4216 8.5122 24.9392 9.24498C26.4896 9.99668 27.0173 10.484 27.0173 11.1519C27.0002 12.1773 25.7637 12.6505 24.6099 12.6505C23.0113 12.6505 22.1526 12.4068 20.849 11.8354L20.3212 11.5917L19.7608 15.0305C20.7022 15.4547 22.4336 15.828 24.2307 15.8471C28.4366 15.8471 31.1735 13.793 31.2079 10.6139C31.2216 8.86992 30.1522 7.53418 27.8416 6.4423ZM38.9591 0.0489446H42.0598L45.2914 15.828H41.5818L40.9808 12.6774H36.2752L35.1168 15.8154H30.9108L36.8639 1.32133C37.2776 0.327513 38.0036 0.0489446 38.9591 0.0489446ZM37.442 9.51053C37.5275 9.50257 39.056 4.38801 39.056 4.38801L40.2769 9.51053H37.442Z" fill="white"/>
</svg>
