<svg width="66" height="19" viewBox="0 0 66 19" fill="none" xmlns="http://www.w3.org/2000/svg">
<rect x="60.5717" y="10.748" width="2.08296" height="2.14021" transform="rotate(-42.0979 60.5717 10.748)" fill="white"/>
<rect x="56.9697" y="12.5051" width="2.77319" height="2.85258" transform="rotate(-41.9923 56.9697 12.5051)" fill="white"/>
<rect x="63.8821" y="9.76758" width="1.38599" height="1.42499" transform="rotate(-42.0289 63.8821 9.76758)" fill="white"/>
<rect x="57.8226" y="4.19458" width="2.08154" height="2.14012" transform="rotate(-41.9923 57.8226 4.19458)" fill="white"/>
<rect x="62.566" y="6.60498" width="1.38468" height="1.425" transform="rotate(-42.0979 62.566 6.60498)" fill="white"/>
<path d="M6.90756 5.75293L5.89776 11.134H5.8278L4.45236 5.75293H3.57192L2.28624 11.134H2.21628L1.1088 5.75293H0L1.60248 12.9648H2.67168L3.97716 7.88772H4.04712L5.3922 12.9648H6.4614L8.0652 5.75293H6.90756Z" fill="white"/>
<rect x="55.505" y="8.83423" width="2.77583" height="2.85258" transform="rotate(-41.9923 55.505 8.83423)" fill="white"/>
<rect x="54.0326" y="5.22046" width="2.77451" height="2.85258" transform="rotate(-41.9923 54.0326 5.22046)" fill="white"/>
<rect x="59.2474" y="7.39355" width="2.07891" height="2.14147" transform="rotate(-42.0694 59.2474 7.39355)" fill="white"/>
<rect x="61.2408" y="3.46069" width="1.38599" height="1.42499" transform="rotate(-42.0289 61.2408 3.46069)" fill="white"/>
<path d="M45.3486 7.92847L44.2253 11.6755H44.1659L42.9 7.92982H41.8123L43.7105 13.0178C43.4729 13.771 43.0584 14.3193 42.3852 14.3193V15.1512C43.5217 15.1512 44.125 14.4197 44.62 13.015L46.4086 7.92847H45.3486V7.92847Z" fill="white"/>
<path fill-rule="evenodd" clip-rule="evenodd" d="M10.5983 7.75879C11.8351 7.75879 12.5968 8.57986 12.5954 10.2424V10.6156H9.37201C9.37201 11.8384 9.85777 12.3758 10.8755 12.3758C11.4088 12.3758 11.9038 12.1804 12.4476 11.8479V12.6174C12.0028 12.8847 11.4088 13.0883 10.6973 13.0883C9.03673 13.0883 8.35297 12.0311 8.35297 10.4229C8.35297 8.87572 9.11461 7.75879 10.5983 7.75879ZM10.5692 8.43872C9.96601 8.43872 9.50005 8.91779 9.39181 9.93293H11.6569C11.6081 8.8635 11.1038 8.43872 10.5692 8.43872Z" fill="white"/>
<rect x="61.9329" y="13.9585" width="2.08164" height="2.14157" transform="rotate(-42.0209 61.9329 13.9585)" fill="white"/>
<path fill-rule="evenodd" clip-rule="evenodd" d="M39.5037 7.75879C40.7392 7.75879 41.5021 8.57986 41.4995 10.2424V10.6156H38.2747C38.2747 11.8384 38.7618 12.3758 39.7795 12.3758C40.3128 12.3758 40.8078 12.1804 41.3503 11.8479V12.6174C40.9042 12.8847 40.3128 13.0883 39.6013 13.0883C37.9408 13.0883 37.2583 12.0311 37.2583 10.4229C37.2583 8.87572 38.0187 7.75879 39.5037 7.75879ZM39.4746 8.43872C38.8714 8.43872 38.4054 8.91779 38.2945 9.93293H40.5623C40.5135 8.8635 40.0066 8.43872 39.4746 8.43872Z" fill="white"/>
<path d="M60.786 14.3478L58.7704 16.2586L55.3674 12.365L56.3139 11.5086L53.9313 8.76586L54.883 7.90815L52.4647 5.16808L56.2386 1.67479L57.4372 3.02379L59.4607 1.16722L60.6567 2.44158L61.4539 1.70736C61.2757 1.6015 61.0975 1.50379 60.9167 1.41558C59.767 0.837433 58.476 0.511719 57.1164 0.511719C52.342 0.511719 48.4467 4.51529 48.4467 9.42543C48.4467 14.3342 52.342 18.3378 57.1164 18.3378C58.6674 18.3378 60.1287 17.9157 61.3893 17.1761C61.8051 16.9345 62.1839 16.6726 62.5297 16.3971L60.786 14.3478Z" fill="white"/>
<path fill-rule="evenodd" clip-rule="evenodd" d="M14.5239 8.1347C14.8223 7.97184 15.3265 7.75877 15.8611 7.75877C17.0874 7.75877 17.75 8.63277 17.75 10.2573C17.75 12.16 16.8603 13.0869 15.4255 13.0869C14.9001 13.0869 14.0897 12.9132 13.4957 12.5888V5.48963L14.5239 5.23584V8.1347ZM14.516 12.2129C14.8328 12.3554 15.1773 12.3744 15.4255 12.3744C16.1581 12.3744 16.7125 11.9062 16.7125 10.2586C16.7125 8.96934 16.2558 8.55134 15.5931 8.55134C15.1998 8.55134 14.912 8.66263 14.516 8.88655V12.2129Z" fill="white"/>
<path d="M34.7068 7.7561C33.5689 7.7561 32.6291 8.23382 32.1842 8.50796V12.9621H33.2112V8.93546C33.5174 8.75225 34.023 8.56903 34.4177 8.56903C34.9259 8.56903 35.31 8.71153 35.31 9.51496V12.9635H36.3383V9.28289C36.3383 8.23653 35.8921 7.75882 34.7068 7.7561Z" fill="white"/>
<path d="M24.4187 5.75293L22.304 11.438H22.2539L20.0376 5.75293H18.8417V12.9648H19.7314V7.85786H19.8198L21.8381 12.9648H22.4704L24.4886 7.73436H24.5771V12.9648H25.645V5.75293H24.4187Z" fill="white"/>
<path fill-rule="evenodd" clip-rule="evenodd" d="M26.7326 10.4229C26.7326 8.64365 27.683 7.75879 28.9885 7.75879C30.294 7.75879 31.2444 8.64229 31.2444 10.4229C31.2444 12.1614 30.3442 13.0883 28.9885 13.0883C27.6342 13.0883 26.7326 12.1614 26.7326 10.4229ZM27.7715 10.4229C27.7715 11.818 28.2863 12.3744 28.9885 12.3744C29.6908 12.3744 30.2056 11.8166 30.2056 10.4229C30.2056 9.04943 29.6617 8.46993 28.9885 8.46993C28.3364 8.46993 27.7715 9.04943 27.7715 10.4229Z" fill="white"/>
</svg>
