<svg width="70" height="23" viewBox="0 0 70 23" fill="none" xmlns="http://www.w3.org/2000/svg">
<path fill-rule="evenodd" clip-rule="evenodd" d="M67.446 8.37806C68.36 8.38806 68.992 8.83806 69.122 9.58806C69.158 9.80006 69.162 10.0201 69.156 10.2301C69.16 13.5961 69.16 16.9521 69.154 20.3121C69.154 20.3416 69.1541 20.3712 69.1541 20.4008C69.1556 21.0051 69.157 21.6054 68.564 22.0821C68.084 22.4781 67.494 22.6101 66.854 22.6101C64.6418 22.6161 62.4352 22.6153 60.2259 22.6146C59.489 22.6143 58.7518 22.6141 58.014 22.6141C57.2742 22.6141 56.5339 22.6143 55.7934 22.6146C53.5711 22.6153 51.3467 22.6161 49.128 22.6101C47.644 22.6101 46.57 21.9381 46.156 20.7661C46.102 20.6021 46.084 20.4261 46.084 20.2541C46.0825 18.9845 46.0829 17.7152 46.0834 16.4458C46.0841 14.2696 46.0848 12.093 46.076 9.91406C46.07 8.69806 46.76 7.84406 47.998 7.25406C52.206 5.25206 56.408 3.25006 60.612 1.24406C61.3 0.916065 61.996 0.690065 62.788 0.974065C63.476 1.22406 63.776 1.70606 63.776 2.28406C63.7784 2.83238 63.7812 3.38061 63.784 3.92875C63.7999 7.03149 63.8158 10.1318 63.758 13.2321C63.736 14.3581 63.014 15.2501 61.676 15.7021C59.8853 16.3022 58.091 16.8957 56.2966 17.4893C55.1188 17.8789 53.9409 18.2686 52.764 18.6601C52.5785 18.7216 52.3927 18.7826 52.207 18.8436C51.6497 19.0266 51.0925 19.2096 50.542 19.4061C50.304 19.4881 50.072 19.6061 49.89 19.7541C49.752 19.8761 49.576 20.1141 49.632 20.2121C49.718 20.3601 49.994 20.5121 50.194 20.5121C50.652 20.5161 51.126 20.4661 51.576 20.3681C54.0382 19.8331 56.4973 19.2898 58.9562 18.7465C60.496 18.4063 62.0357 18.0662 63.576 17.7281C64.864 17.4421 65.936 16.3141 65.942 15.2161C65.95 13.1221 65.958 11.0241 65.932 8.92406C65.928 8.49606 66.07 8.31606 66.61 8.37206C66.7863 8.39137 66.9651 8.38666 67.1453 8.38191C67.2452 8.37928 67.3454 8.37664 67.446 8.37806ZM58.762 7.12806C57.77 7.25206 57.12 7.73606 56.822 8.51006C56.496 9.35206 57.02 10.0101 57.96 10.0101C59.086 10.0141 60.226 8.95406 60.084 8.04206C59.99 7.45006 59.418 7.04406 58.762 7.12806Z" fill="white"/>
<path d="M13.224 11.1741C13.224 12.2381 13.224 13.2801 13.224 14.3321C12.418 14.3321 11.668 14.3321 10.86 14.3321C10.86 13.2581 10.86 12.2161 10.86 11.1641C10.422 11.1641 10.042 11.1641 9.62399 11.1641C9.62399 13.7981 9.62399 16.3861 9.62399 18.9801C10.056 18.9801 10.446 18.9801 10.898 18.9801C10.898 17.7961 10.898 16.6441 10.898 15.4801C11.698 15.4801 12.438 15.4801 13.232 15.4801C13.232 16.6601 13.232 17.8141 13.232 18.9841C13.682 18.9841 14.072 18.9841 14.49 18.9841C14.49 16.3681 14.49 13.7761 14.49 11.1741C14.062 11.1741 13.672 11.1741 13.224 11.1741Z" fill="white"/>
<path fill-rule="evenodd" clip-rule="evenodd" d="M5.92844 6.96045C6.15533 6.96022 6.38244 6.96 6.61 6.96L6.61744 6.96002C7.35001 6.96199 7.352 6.962 7.352 7.554V18.274V18.954H5.92V14.564C5.076 14.402 5.032 14.418 4.674 14.97C4.45147 15.3153 4.22746 15.6599 4.00347 16.0044C3.44639 16.8614 2.8895 17.7181 2.356 18.584C2.16 18.898 1.942 19.036 1.518 18.998C1.3013 18.979 1.08092 18.983 0.828934 18.9875C0.708816 18.9897 0.581514 18.992 0.444 18.992L0.631633 18.7093C1.60969 17.2356 2.5482 15.8216 3.492 14.404C0.504 13.598 -0.0859998 9.822 2.16 7.834C2.814 7.256 3.61 6.956 4.57 6.96C5.02311 6.96133 5.47533 6.96089 5.92844 6.96045ZM5.27344 13.3193C5.47556 13.3106 5.67868 13.3019 5.88 13.304V8.09C3.938 7.848 3.104 8.252 2.472 9.706C2.46147 9.73078 2.45017 9.75557 2.43881 9.78047C2.41351 9.83595 2.38795 9.89202 2.37 9.95C2.056 11.008 2.298 11.972 3.148 12.806C3.73663 13.3851 4.4977 13.3525 5.27344 13.3193Z" fill="white"/>
<path d="M42.006 17.8581C39.884 18.5661 38.42 17.9261 38.036 16.0781C37.834 15.1201 37.906 14.1561 38.256 13.2221C38.728 11.9461 39.666 11.5661 41.226 11.9881C41.256 11.9961 41.292 11.9821 41.346 11.9741C41.502 11.7801 41.662 11.5761 41.836 11.3581C40.548 10.5121 38.782 10.7141 37.822 11.7821C37.08 12.6061 36.79 13.5601 36.696 14.5621C36.59 15.7121 36.732 16.8281 37.492 17.8381C38.288 18.8941 39.668 19.3901 41.088 19.0581C42.09 18.8221 42.202 18.7181 42.006 17.8581Z" fill="white"/>
<path fill-rule="evenodd" clip-rule="evenodd" d="M28.426 18.0663C28.5372 18.0316 28.6489 17.9967 28.762 17.964C29.178 18.408 29.162 18.6 28.56 18.808C28.02 18.996 27.446 19.158 26.872 19.218C25.686 19.344 24.66 18.836 24.216 17.842C23.91 17.166 23.712 16.436 23.622 15.718C23.48 14.562 23.71 13.422 24.314 12.364C24.53 11.984 24.838 11.61 25.204 11.318C26.178 10.536 27.404 10.688 28.112 11.64C28.918 12.724 29.074 13.916 28.99 15.188H25.12C25.092 16.038 25.07 16.85 25.528 17.606C25.918 18.252 26.65 18.48 27.676 18.272C27.9303 18.2209 28.177 18.1439 28.426 18.0663ZM27.304 12.274C26.918 11.706 26.198 11.69 25.762 12.232C25.262 12.858 25.116 13.566 25.074 14.33H27.77C27.788 13.6 27.736 12.904 27.304 12.274Z" fill="white"/>
<path d="M33.554 14.2302C34.326 13.3422 35.064 12.4362 35.814 11.5382C35.906 11.4282 35.986 11.3122 36.114 11.1442C35.872 11.1442 35.73 11.1602 35.596 11.1422C35.048 11.0682 34.714 11.2462 34.416 11.6382C33.758 12.5022 33.028 13.3262 32.324 14.1642C32.244 14.2582 32.144 14.3402 31.952 14.5262C31.952 13.3242 31.952 12.2562 31.952 11.1662C31.52 11.1662 31.142 11.1662 30.73 11.1662C30.73 13.7382 30.73 16.2682 30.73 18.7962C31.15 18.7962 31.528 18.7962 31.97 18.7962C31.97 17.8902 31.95 17.0022 31.982 16.1182C31.994 15.8142 32.134 15.5102 32.214 15.2062C32.452 15.3522 32.554 15.4822 32.644 15.6182C33.282 16.5762 33.912 17.5342 34.556 18.4862C34.64 18.6122 34.784 18.7822 34.92 18.8002C35.284 18.8462 35.658 18.8162 36.108 18.8162C35.212 17.4522 34.376 16.1642 33.52 14.8822C33.358 14.6422 33.346 14.4682 33.554 14.2302Z" fill="white"/>
<path fill-rule="evenodd" clip-rule="evenodd" d="M21.668 11.1641V17.9421C21.8446 17.9485 22.005 17.955 22.1654 17.9614C22.3028 17.967 22.4403 17.9725 22.588 17.9781V20.4421H21.474V18.8521H17.048V20.4501H15.87V17.9901C16.4604 18.0683 16.6068 17.725 16.7566 17.3738C16.7676 17.3479 16.7787 17.3219 16.79 17.2961C17.4432 15.7969 17.5099 14.23 17.5767 12.6639C17.5778 12.6379 17.5789 12.612 17.58 12.5861C17.5934 12.2787 17.5897 11.9721 17.5858 11.6502C17.5839 11.4925 17.582 11.3311 17.582 11.1641H21.668ZM17.626 17.9421H20.378V12.1261H18.744C18.7307 12.432 18.7234 12.738 18.716 13.0436C18.6757 14.7178 18.6357 16.3793 17.626 17.9421Z" fill="white"/>
</svg>
